<svg width="1219" height="248" viewBox="0 0 1219 248" fill="none" xmlns="http://www.w3.org/2000/svg">
<path d="M104.59 216.211L113.027 227.637C99.3164 242.227 83.3203 248.379 66.4453 248.379C36.9141 248.379 17.0508 227.109 16.6992 186.504L15.6445 66.4453H0V52.5586H15.4688L15.293 36.7383L58.5352 22.1484L58.7109 52.5586H93.5156V66.4453H58.8867L59.7656 181.23C59.9414 210.762 67.6758 223.594 84.0234 223.594C90.8789 223.594 98.0859 221.133 104.59 216.211Z" fill="url(#paint0_linear_77_746)" fill-opacity="0.06"/>
<path d="M274.395 198.984C261.035 230.273 229.043 248.379 195.645 248.379C138.164 248.379 104.941 202.148 104.941 148.711C104.941 76.4648 157.148 48.1641 203.555 48.1641C251.191 48.1641 273.867 70.3125 273.867 95.8008C273.867 153.457 195.82 149.414 195.82 194.414C195.82 214.102 208.301 222.539 220.43 222.539C235.723 222.539 253.828 211.465 261.562 193.535L274.395 198.984ZM238.887 95.0977C238.887 76.8164 227.637 62.0508 203.555 62.0508C179.824 62.0508 149.238 86.4844 149.238 139.922C149.238 170.684 162.246 202.148 186.855 215.859C183.691 209.531 182.109 202.148 182.109 194.414C182.109 139.043 238.887 142.207 238.887 95.0977Z" fill="url(#paint1_linear_77_746)" fill-opacity="0.06"/>
<path d="M298.301 58.5352L341.543 52.5586V85.6055C352.969 62.7539 371.953 48.1641 398.145 48.1641C409.219 48.1641 420.117 50.9766 428.73 57.1289L427.852 105.82C418.535 87.7148 403.594 79.4531 388.477 79.4531C367.91 79.4531 347.344 94.7461 341.543 120.762V243.984H298.301V58.5352Z" fill="url(#paint2_linear_77_746)" fill-opacity="0.06"/>
<path d="M452.988 58.5352L496.23 52.5586V85.6055C507.656 62.7539 526.641 48.1641 552.832 48.1641C563.906 48.1641 574.805 50.9766 583.418 57.1289L582.539 105.82C573.223 87.7148 558.281 79.4531 543.164 79.4531C522.598 79.4531 502.031 94.7461 496.23 120.762V243.984H452.988V58.5352Z" fill="url(#paint3_linear_77_746)" fill-opacity="0.06"/>
<path d="M666.914 48.1641C733.711 48.1641 756.562 95.625 756.562 154.512V243.984H713.32V216.562C696.094 237.656 668.496 248.379 643.711 248.379C604.336 248.379 583.594 233.262 583.594 207.07C583.594 142.207 681.855 120.234 681.855 109.688C681.855 96.1523 601.523 111.27 601.523 82.793C601.523 63.457 632.812 48.1641 666.914 48.1641ZM713.32 188.613V143.438C713.32 117.773 709.629 92.2852 695.742 77.3438C687.832 68.9062 674.121 65.5664 660.586 65.5664C640.02 65.5664 619.453 73.3008 619.453 82.6172C619.453 92.9883 695.742 79.2773 695.742 109.688C695.742 138.164 624.902 144.141 624.902 200.742C624.902 216.914 634.395 229.922 656.016 229.922C677.109 229.922 703.477 212.344 713.32 188.613Z" fill="url(#paint4_linear_77_746)" fill-opacity="0.06"/>
<path d="M814.219 0C826.172 0 835.84 9.66797 835.84 21.6211C835.84 33.5742 826.172 43.2422 814.219 43.2422C802.266 43.2422 792.598 33.5742 792.598 21.6211C792.598 9.66797 802.266 0 814.219 0ZM792.598 58.5352L835.84 52.5586V243.984H792.598V58.5352Z" fill="url(#paint5_linear_77_746)" fill-opacity="0.06"/>
<path d="M871.699 58.5352L914.941 52.5586V78.5742C930.059 56.7773 950.977 48.1641 973.301 48.1641C1009.16 48.1641 1044.32 74.707 1044.32 128.32V243.984H1001.07V128.848C1001.07 90.5273 980.684 70.3125 957.832 70.3125C940.43 70.3125 923.73 83.1445 914.941 109.688V243.984H871.699V58.5352Z" fill="url(#paint6_linear_77_746)" fill-opacity="0.06"/>
<path d="M1176.33 207.949C1176.33 155.742 1067.17 165.234 1067.17 102.129C1067.17 84.375 1077.01 47.9883 1146.62 47.9883C1172.81 47.9883 1202.7 56.9531 1218.34 74.1797L1199.36 109.512C1188.63 73.8281 1167.01 61.1719 1147.32 61.1719C1126.41 61.1719 1109.36 72.2461 1109.36 88.5938C1109.36 140.801 1218.34 131.133 1218.34 194.414C1218.34 211.992 1208.5 248.379 1139.06 248.379C1112.7 248.379 1082.81 239.59 1067.17 222.363L1086.15 187.031C1096.88 222.539 1118.67 235.195 1138.18 235.195C1159.1 235.195 1176.33 224.121 1176.33 207.949Z" fill="url(#paint7_linear_77_746)" fill-opacity="0.06"/>
<defs>
<linearGradient id="paint0_linear_77_746" x1="-5.80078" y1="148.484" x2="1250.2" y2="148.484" gradientUnits="userSpaceOnUse">
<stop stop-color="#FFF9ED"/>
<stop offset="0.562608" stop-color="#FFF9ED" stop-opacity="0.3"/>
<stop offset="1" stop-color="#FFF9ED"/>
</linearGradient>
<linearGradient id="paint1_linear_77_746" x1="-5.80078" y1="148.484" x2="1250.2" y2="148.484" gradientUnits="userSpaceOnUse">
<stop stop-color="#FFF9ED"/>
<stop offset="0.562608" stop-color="#FFF9ED" stop-opacity="0.3"/>
<stop offset="1" stop-color="#FFF9ED"/>
</linearGradient>
<linearGradient id="paint2_linear_77_746" x1="-5.80078" y1="148.484" x2="1250.2" y2="148.484" gradientUnits="userSpaceOnUse">
<stop stop-color="#FFF9ED"/>
<stop offset="0.562608" stop-color="#FFF9ED" stop-opacity="0.3"/>
<stop offset="1" stop-color="#FFF9ED"/>
</linearGradient>
<linearGradient id="paint3_linear_77_746" x1="-5.80078" y1="148.484" x2="1250.2" y2="148.484" gradientUnits="userSpaceOnUse">
<stop stop-color="#FFF9ED"/>
<stop offset="0.562608" stop-color="#FFF9ED" stop-opacity="0.3"/>
<stop offset="1" stop-color="#FFF9ED"/>
</linearGradient>
<linearGradient id="paint4_linear_77_746" x1="-5.80078" y1="148.484" x2="1250.2" y2="148.484" gradientUnits="userSpaceOnUse">
<stop stop-color="#FFF9ED"/>
<stop offset="0.562608" stop-color="#FFF9ED" stop-opacity="0.3"/>
<stop offset="1" stop-color="#FFF9ED"/>
</linearGradient>
<linearGradient id="paint5_linear_77_746" x1="-5.80078" y1="148.484" x2="1250.2" y2="148.484" gradientUnits="userSpaceOnUse">
<stop stop-color="#FFF9ED"/>
<stop offset="0.562608" stop-color="#FFF9ED" stop-opacity="0.3"/>
<stop offset="1" stop-color="#FFF9ED"/>
</linearGradient>
<linearGradient id="paint6_linear_77_746" x1="-5.80078" y1="148.484" x2="1250.2" y2="148.484" gradientUnits="userSpaceOnUse">
<stop stop-color="#FFF9ED"/>
<stop offset="0.562608" stop-color="#FFF9ED" stop-opacity="0.3"/>
<stop offset="1" stop-color="#FFF9ED"/>
</linearGradient>
<linearGradient id="paint7_linear_77_746" x1="-5.80078" y1="148.484" x2="1250.2" y2="148.484" gradientUnits="userSpaceOnUse">
<stop stop-color="#FFF9ED"/>
<stop offset="0.562608" stop-color="#FFF9ED" stop-opacity="0.3"/>
<stop offset="1" stop-color="#FFF9ED"/>
</linearGradient>
</defs>
</svg>
