<svg width="1440" height="269" viewBox="0 0 1440 269" fill="none" xmlns="http://www.w3.org/2000/svg">
<path d="M257.467 90.6514L0 101.391V268.018H1442V115.186L1394.63 129.458C1390.88 130.586 1387 131.159 1383.09 131.159H1277.86C1273.28 131.159 1268.74 130.374 1264.43 128.837L1102.88 71.26L998.233 24.2407C991.127 21.0483 983.245 20 975.552 21.2244L891.839 34.5485C880.096 36.4176 868.13 32.9651 859.187 25.1275L856.769 23.0085C850.292 17.3318 842.156 13.8972 833.57 13.2157L668.672 0.125471C659.644 -0.59127 650.639 1.77739 643.131 6.84395L602.323 34.3838C599.261 36.4506 595.927 38.083 592.416 39.2347L446.416 87.1328C439.693 89.3382 432.506 89.7212 425.587 88.2426L354.725 73.0989C349.056 71.8875 343.192 71.9226 337.538 73.202L264.628 89.6998C262.274 90.2323 259.878 90.5508 257.467 90.6514Z" fill="#FFF9ED"/>
</svg>
